<svg version="1.1" id="Layer_1" xmlns="http://www.w3.org/2000/svg" xmlns:xlink="http://www.w3.org/1999/xlink" x="0px" y="0px"
	 width="100%" viewBox="0 0 600 600" enable-background="new 0 0 600 600" xml:space="preserve">
<path fill="#FFFFFF" opacity="1.000000" stroke="none" 
	d="
M319.000000,601.000000 
	C212.666672,601.000000 106.833336,601.000000 1.000000,601.000000 
	C1.000000,401.000000 1.000000,201.000000 1.000000,1.000000 
	C201.000000,1.000000 401.000000,1.000000 601.000000,1.000000 
	C601.000000,201.000000 601.000000,401.000000 601.000000,601.000000 
	C507.166656,601.000000 413.333344,601.000000 319.000000,601.000000 
M577.643066,347.568024 
	C579.062378,336.724792 581.483704,325.897888 581.660278,315.034454 
	C581.909363,299.713287 581.298035,284.273743 579.562012,269.055054 
	C577.930969,254.755814 575.103333,240.484070 571.465942,226.548996 
	C566.398926,207.137222 559.108521,188.404602 549.150269,170.916397 
	C542.624878,159.456833 535.736328,148.143219 528.158936,137.362701 
	C522.039185,128.656036 515.086914,120.421387 507.711578,112.737846 
	C497.551788,102.153519 487.190186,91.625496 475.895599,82.309212 
	C465.980560,74.130836 454.938843,67.192116 443.881836,60.561111 
	C433.499878,54.334930 422.685822,48.692104 411.630890,43.758244 
	C396.025787,36.793606 379.825043,31.175919 362.926727,28.307604 
	C346.170471,25.463398 329.323700,22.897650 312.413086,21.317869 
	C302.943298,20.433208 293.266083,21.950970 283.677704,22.113750 
	C266.862183,22.399220 250.590103,25.761951 234.299286,29.657026 
	C205.735092,36.486622 179.082336,47.847042 154.276749,63.263718 
	C133.469620,76.195343 114.238419,91.322403 97.971870,109.874542 
	C90.918900,117.918503 83.421402,125.638092 77.023933,134.177826 
	C63.677555,151.993439 52.616962,171.285568 43.942142,191.768951 
	C33.970387,215.314758 26.928946,239.806015 24.345711,265.332916 
	C22.816998,280.439301 21.172434,295.661438 21.498360,310.790192 
	C21.791889,324.415100 24.358744,338.038544 26.531883,351.564789 
	C30.154716,374.114349 37.203712,395.657349 46.591454,416.476440 
	C59.091610,444.197906 75.715836,469.258545 96.472641,491.333099 
	C107.395027,502.948914 119.360023,513.802429 131.954361,523.583557 
	C159.955780,545.330383 191.115997,561.514160 225.506744,570.446167 
	C243.287827,575.064270 261.530334,579.117432 279.777252,580.402039 
	C299.488251,581.789734 319.577728,582.620667 339.277618,578.684570 
	C353.637756,575.815369 368.061676,573.060730 382.179138,569.230286 
	C402.591583,563.691772 421.629272,554.691223 440.040649,544.287048 
	C457.536591,534.400146 473.959106,522.996643 488.660828,509.362000 
	C507.553894,491.840210 524.475952,472.624817 538.209106,450.595795 
	C548.793091,433.618286 558.122009,416.039978 564.498474,397.189575 
	C569.878845,381.284119 573.333801,364.727325 577.643066,347.568024 
z"/>
<path fill="#242021" opacity="1.000000" stroke="none" 
	d="
M577.642029,348.013428 
	C573.333801,364.727325 569.878845,381.284119 564.498474,397.189575 
	C558.122009,416.039978 548.793091,433.618286 538.209106,450.595795 
	C524.475952,472.624817 507.553894,491.840210 488.660828,509.362000 
	C473.959106,522.996643 457.536591,534.400146 440.040649,544.287048 
	C421.629272,554.691223 402.591583,563.691772 382.179138,569.230286 
	C368.061676,573.060730 353.637756,575.815369 339.277618,578.684570 
	C319.577728,582.620667 299.488251,581.789734 279.777252,580.402039 
	C261.530334,579.117432 243.287827,575.064270 225.506744,570.446167 
	C191.115997,561.514160 159.955780,545.330383 131.954361,523.583557 
	C119.360023,513.802429 107.395027,502.948914 96.472641,491.333099 
	C75.715836,469.258545 59.091610,444.197906 46.591454,416.476440 
	C37.203712,395.657349 30.154716,374.114349 26.531883,351.564789 
	C24.358744,338.038544 21.791889,324.415100 21.498360,310.790192 
	C21.172434,295.661438 22.816998,280.439301 24.345711,265.332916 
	C26.928946,239.806015 33.970387,215.314758 43.942142,191.768951 
	C52.616962,171.285568 63.677555,151.993439 77.023933,134.177826 
	C83.421402,125.638092 90.918900,117.918503 97.971870,109.874542 
	C114.238419,91.322403 133.469620,76.195343 154.276749,63.263718 
	C179.082336,47.847042 205.735092,36.486622 234.299286,29.657026 
	C250.590103,25.761951 266.862183,22.399220 283.677704,22.113750 
	C293.266083,21.950970 302.943298,20.433208 312.413086,21.317869 
	C329.323700,22.897650 346.170471,25.463398 362.926727,28.307604 
	C379.825043,31.175919 396.025787,36.793606 411.630890,43.758244 
	C422.685822,48.692104 433.499878,54.334930 443.881836,60.561111 
	C454.938843,67.192116 465.980560,74.130836 475.895599,82.309212 
	C487.190186,91.625496 497.551788,102.153519 507.711578,112.737846 
	C515.086914,120.421387 522.039185,128.656036 528.158936,137.362701 
	C535.736328,148.143219 542.624878,159.456833 549.150269,170.916397 
	C559.108521,188.404602 566.398926,207.137222 571.465942,226.548996 
	C575.103333,240.484070 577.930969,254.755814 579.562012,269.055054 
	C581.298035,284.273743 581.909363,299.713287 581.660278,315.034454 
	C581.483704,325.897888 579.062378,336.724792 577.642029,348.013428 
M223.596649,385.279053 
	C223.755997,385.860565 223.915359,386.442047 224.244797,387.836212 
	C229.573059,388.333649 234.901337,388.831085 239.094055,389.222504 
	C239.094055,373.392792 238.903717,358.628815 239.228516,343.876160 
	C239.309250,340.208588 240.454178,336.262024 242.166718,332.998138 
	C245.350449,326.930298 249.114243,326.822296 254.407410,331.131439 
	C256.192566,332.584747 259.270874,333.457703 261.479614,333.057739 
	C263.190002,332.747955 265.244110,330.264801 265.788666,328.359955 
	C267.359283,322.865692 263.918030,318.475006 258.217651,317.904785 
	C250.857910,317.168579 244.825790,320.703125 241.365921,327.806366 
	C240.685501,329.203278 240.081879,330.637604 239.442810,332.054688 
	C239.141891,331.994171 238.840958,331.933655 238.540039,331.873138 
	C238.540039,327.508484 238.540039,323.143829 238.540039,318.228638 
	C232.815247,320.004425 227.729691,321.581970 223.127274,323.009613 
	C223.919937,326.841370 224.550140,329.887787 224.595749,333.370209 
	C225.010208,334.914642 225.424667,336.459106 226.091248,338.910492 
	C226.016830,349.272766 225.942413,359.635040 225.118790,370.193542 
	C225.158752,373.156372 225.198700,376.119171 225.380249,379.852264 
	C224.940689,381.561127 224.501114,383.269989 223.596649,385.279053 
M473.709595,364.194397 
	C473.858032,364.473572 474.006439,364.752716 474.323242,365.772827 
	C475.794800,368.791229 477.039673,371.947144 478.774048,374.806091 
	C491.637695,396.010040 521.742981,395.597839 533.887695,373.999023 
	C539.260315,364.444031 540.309570,354.097168 537.693176,343.538452 
	C533.011963,324.647614 514.458435,313.467957 496.808136,319.306427 
	C476.884247,325.896942 470.390289,346.085907 473.709595,364.194397 
M431.081177,253.939911 
	C429.438324,255.070831 427.906769,256.430176 426.133728,257.293793 
	C417.738708,261.382690 409.087585,262.592041 400.894501,257.249634 
	C392.887665,252.028671 391.847809,243.561935 391.503510,234.362473 
	C398.774200,234.362473 405.560791,234.362473 412.347382,234.362473 
	C419.110809,234.362473 425.874237,234.362473 433.950623,234.362473 
	C432.457336,227.378571 431.641968,221.140121 429.723694,215.261581 
	C427.723297,209.131592 423.098206,205.033157 416.863800,202.891769 
	C401.051483,197.460556 384.412476,204.358170 377.429962,219.516022 
	C372.417542,230.397018 371.711334,241.710327 375.246490,253.159439 
	C379.256195,266.145569 391.231537,274.285309 405.925110,274.272064 
	C419.269470,274.260040 428.592896,267.355194 432.866333,253.997986 
	C432.795380,253.732849 432.724457,253.467712 432.653534,253.202576 
	C432.347748,253.380554 432.041992,253.558548 431.081177,253.939911 
M279.406769,253.608887 
	C279.603180,236.957718 279.807098,220.306610 279.919983,203.654877 
	C279.921539,203.421814 278.779541,203.181000 277.303101,202.515167 
	C270.562622,203.136856 263.822144,203.758545 258.317871,204.266205 
	C258.663086,218.068665 258.966461,231.304718 259.340088,244.538788 
	C259.471436,249.191086 259.363800,253.903610 260.087036,258.474426 
	C261.530975,267.600494 266.844086,272.681305 275.958557,273.895477 
	C287.133881,275.384247 295.924316,271.943787 301.154785,260.996002 
	C301.154785,264.721588 301.154785,268.447174 301.154785,272.465027 
	C308.286865,272.465027 315.000183,272.465027 321.621613,272.465027 
	C317.040771,249.167709 320.725342,225.664459 318.938690,202.270706 
	C311.745758,203.043289 305.017487,203.765976 298.158875,204.502655 
	C298.845062,207.944962 299.885284,210.993896 299.990906,214.074860 
	C300.413116,226.384720 300.588440,238.703918 300.766754,251.020935 
	C300.866119,257.883484 298.216827,260.777344 291.263489,261.732758 
	C283.605957,262.784943 279.876587,260.528137 279.406769,253.608887 
M123.475609,220.546036 
	C123.357239,234.197632 123.226631,247.849182 123.167213,261.501038 
	C123.164940,262.022827 123.849289,262.547638 124.379959,263.855713 
	C124.211311,264.902435 124.042656,265.949158 123.212997,267.127625 
	C123.143593,268.418884 123.074196,269.710175 123.193871,271.813324 
	C130.642380,272.265686 138.090897,272.718048 144.511230,273.107971 
	C144.258179,255.992935 144.073410,239.751617 143.735382,223.513519 
	C143.659622,219.874496 143.376099,216.175369 142.607895,212.629654 
	C141.322037,206.694733 137.419876,203.122543 131.415894,201.962784 
	C119.187622,199.600769 110.896477,203.197540 104.240364,213.699127 
	C103.986145,214.100204 103.515205,214.363907 102.496582,215.266251 
	C102.496582,210.316605 102.496582,206.234009 102.496582,201.560165 
	C94.631882,203.818359 87.283180,205.928406 80.675972,207.825531 
	C88.022827,229.616943 84.300346,251.062515 83.081680,272.578644 
	C90.233871,272.578644 97.511719,272.578644 105.057541,272.578644 
	C104.674400,269.921509 104.075790,267.500641 104.015701,265.066498 
	C103.679131,251.433670 103.718422,237.786469 103.100342,224.168198 
	C102.853828,218.736603 105.467819,216.768127 109.962509,215.653534 
	C117.167313,213.866898 121.587143,215.173035 123.475609,220.546036 
M276.722992,373.256378 
	C277.153107,374.836334 277.583221,376.416260 278.473633,378.524597 
	C281.593903,388.153168 289.207581,392.181702 300.151215,389.994568 
	C306.944214,388.636932 310.676147,384.602051 310.270538,379.319122 
	C307.175964,379.730682 304.074188,380.454468 300.963989,380.492554 
	C294.312897,380.574036 290.872955,377.496460 290.765991,370.949493 
	C290.546112,357.491455 290.637939,344.027161 290.770752,330.567108 
	C290.779419,329.687103 292.222504,328.821228 293.168274,328.751312 
	C293.649536,329.136292 294.125977,329.849548 294.612823,329.856720 
	C301.313049,329.955475 308.015991,330.022308 314.714355,329.893890 
	C315.488434,329.879028 316.239166,328.645966 317.823822,327.753845 
	C318.570831,328.492340 319.967102,329.229340 319.968750,329.969513 
	C320.000061,343.988678 319.866699,358.008270 319.086273,372.169128 
	C319.293671,372.707489 319.501038,373.245880 319.879608,374.534332 
	C319.396484,379.151062 318.913391,383.767792 318.404999,388.626343 
	C323.924713,388.626343 329.457703,388.626343 334.071808,388.626343 
	C334.071808,368.258606 334.071808,348.215302 334.071808,327.724121 
	C336.324921,327.724121 339.116608,327.724487 341.908325,327.724030 
	C348.820312,327.722900 349.508240,326.908966 348.665314,319.236450 
	C343.628967,319.236450 338.531616,319.236450 332.670258,319.236450 
	C333.119720,312.845276 333.160583,306.872803 334.076569,301.037720 
	C334.744629,296.781830 337.726166,294.103119 342.347992,293.641632 
	C346.832672,293.193756 347.964996,296.277832 349.009033,299.591492 
	C349.206299,300.217529 349.448425,301.114349 349.918488,301.321228 
	C352.188049,302.320099 354.748291,304.118134 356.803131,303.692200 
	C358.505646,303.339264 360.548798,300.422211 360.861420,298.397339 
	C361.651886,293.277008 358.165436,290.556152 353.813293,288.849945 
	C340.084625,283.467590 324.714325,291.180145 321.230072,305.474731 
	C320.150391,309.904175 320.079437,314.579468 319.574219,318.906311 
	C309.872528,318.906311 300.321289,318.906311 290.459442,318.906311 
	C290.459442,314.393524 290.459442,310.307159 290.459442,305.059204 
	C283.093231,312.840546 276.473297,319.833588 269.288757,327.423035 
	C272.171997,327.656677 274.084045,327.811615 276.061401,328.647827 
	C276.491241,329.130981 276.921051,329.614136 277.629425,330.986877 
	C277.541992,344.933716 277.454529,358.880585 276.722992,373.256378 
M132.659668,384.245697 
	C148.892014,372.660645 150.475113,343.107910 140.874771,328.686981 
	C131.081665,313.976471 109.839973,314.168121 100.150673,328.930267 
	C99.675728,329.653839 99.075180,330.294983 97.896240,331.772919 
	C97.896240,326.737762 97.896240,322.791229 97.896240,318.595581 
	C96.453224,318.851166 95.295227,318.936584 94.213211,319.269165 
	C90.119705,320.527466 86.050842,321.865997 83.165535,322.791809 
	C87.058731,354.150879 84.975166,384.917267 84.420975,415.760681 
	C89.299706,415.760681 94.580650,415.760681 99.594856,415.760681 
	C99.086510,406.724030 98.588806,397.876709 98.061737,388.507141 
	C110.528625,391.279114 121.799660,391.739014 132.659668,384.245697 
M164.053726,274.040833 
	C173.545151,275.323486 181.447189,273.023529 185.993240,263.251801 
	C190.595078,272.621155 195.628708,275.529022 203.660721,274.078888 
	C209.746490,272.980164 213.527603,268.329620 214.210983,261.102905 
	C206.093155,261.626007 204.649658,260.257355 204.563614,251.982361 
	C204.447678,240.832962 204.638229,229.666321 204.023361,218.544342 
	C203.826233,214.978806 202.260452,210.903244 200.001083,208.140244 
	C190.921066,197.036087 160.717010,199.884430 154.010727,212.512100 
	C152.622910,215.125351 152.784790,219.417099 153.952026,222.218857 
	C154.681076,223.968811 159.055984,225.699463 161.031769,225.064453 
	C163.718597,224.200912 165.757263,221.145157 167.895569,218.862488 
	C168.499237,218.218063 168.609100,217.005234 168.725372,216.026962 
	C169.552048,209.070709 175.059647,211.156525 179.124466,210.732101 
	C182.896194,210.338272 184.277451,213.158142 185.190704,216.142151 
	C187.644211,224.158859 185.429337,229.747116 177.885086,233.581100 
	C171.671951,236.738602 165.067276,239.149170 158.957550,242.480301 
	C152.230331,246.148117 148.862335,252.062546 150.079056,259.935791 
	C151.250549,267.516510 155.803329,272.077271 164.053726,274.040833 
M159.703033,376.706055 
	C175.315353,396.530396 203.056580,394.672119 214.210327,372.834106 
	C220.127731,361.248413 220.608459,349.066681 215.169052,337.156799 
	C209.250107,324.197021 198.616425,317.703644 184.523361,318.071198 
	C170.857193,318.427582 161.353882,325.890808 156.264999,338.341644 
	C150.981522,351.268555 151.744370,364.048492 159.703033,376.706055 
M372.605164,318.868805 
	C365.471649,320.423523 359.848328,324.369537 355.339691,329.966888 
	C345.280823,342.454742 344.562866,363.115540 353.665527,376.309326 
	C366.402252,394.770447 393.105560,395.208679 405.914612,377.166718 
	C414.802948,364.647217 415.324829,345.757355 407.140930,332.779785 
	C400.137299,321.673737 386.407593,315.933899 372.605164,318.868805 
M249.034180,271.779999 
	C253.239578,269.112823 255.104965,265.096924 256.007568,260.125977 
	C253.062576,260.655396 250.515823,261.331696 247.931732,261.536285 
	C240.536880,262.121735 236.968536,258.938599 236.805145,251.581314 
	C236.664719,245.257980 236.760864,238.929321 236.757141,232.603027 
	C236.753662,226.676056 236.756393,220.749100 236.756393,214.622406 
	C241.606781,214.622406 245.981583,215.462158 249.853851,214.425247 
	C255.636566,212.876740 251.944244,206.990646 254.600311,202.745422 
	C248.088562,202.745422 242.542908,202.745422 236.459412,202.745422 
	C236.459412,197.109299 236.459412,192.112274 236.459412,188.135864 
	C228.065598,196.517838 219.467209,205.104080 210.914566,213.644653 
	C212.794403,213.644653 215.198914,213.644653 217.952957,213.644653 
	C217.952957,215.688263 217.952560,217.330811 217.953018,218.973358 
	C217.956360,230.960175 217.823166,242.949051 218.003265,254.933212 
	C218.170807,266.082703 223.404251,272.941315 233.236328,273.834320 
	C238.182190,274.283539 243.306137,272.772064 249.034180,271.779999 
M364.882172,201.268890 
	C355.575897,202.342804 352.410614,209.657578 348.713196,216.813461 
	C348.713196,211.902725 348.713196,206.991974 348.713196,201.558273 
	C341.005615,203.800186 333.790741,205.898773 326.163818,208.117218 
	C333.421997,218.424286 330.917999,229.555038 331.047028,240.205124 
	C331.177002,250.932999 330.413086,261.671722 330.040649,272.412292 
	C336.909729,272.412292 344.446777,272.412292 350.915527,272.412292 
	C350.578766,258.321075 350.142914,244.581985 350.004333,230.839890 
	C349.973175,227.747711 350.587494,224.511505 351.587280,221.573914 
	C353.971832,214.567810 356.774902,213.772537 362.570679,218.012955 
	C365.987366,220.512726 369.608673,221.127838 373.217316,218.696304 
	C376.758911,216.309921 377.853363,212.740280 377.043365,208.614899 
	C376.054352,203.577835 373.049805,201.647964 364.882172,201.268890 
M434.430328,312.555359 
	C434.430328,304.198120 434.430328,295.840881 434.430328,287.165344 
	C428.755920,288.842590 423.400482,290.425537 419.390533,291.610809 
	C422.911285,324.380310 421.233215,356.447662 420.418091,388.604156 
	C425.264404,388.604156 430.632996,388.604156 434.913879,388.604156 
	C434.751312,363.363007 434.590851,338.451660 434.430328,312.555359 
M449.765289,382.028839 
	C449.407532,384.146240 449.049774,386.263641 448.651489,388.620972 
	C454.375916,388.620972 459.751373,388.620972 464.227173,388.620972 
	C464.227173,365.133240 464.227173,341.970734 464.227173,318.127167 
	C457.760620,320.016724 452.417084,321.578156 447.775604,322.934418 
	C452.422516,342.596619 450.165710,361.895538 449.765289,382.028839 
M455.726990,308.589081 
	C461.847412,307.904480 464.886597,305.170227 464.925293,300.313660 
	C464.959320,296.044983 461.661011,292.377747 457.357544,291.899414 
	C452.911072,291.405182 449.034576,294.075165 448.046906,298.312134 
	C446.940552,303.058105 449.397034,306.662933 455.726990,308.589081 
z"/>
<path fill="#F6F6F6" opacity="1.000000" stroke="none" 
	d="
M292.998383,327.948792 
	C292.222504,328.821228 290.779419,329.687103 290.770752,330.567108 
	C290.637939,344.027161 290.546112,357.491455 290.765991,370.949493 
	C290.872955,377.496460 294.312897,380.574036 300.963989,380.492554 
	C304.074188,380.454468 307.175964,379.730682 310.270538,379.319122 
	C310.676147,384.602051 306.944214,388.636932 300.151215,389.994568 
	C289.207581,392.181702 281.593903,388.153168 278.267548,377.884033 
	C277.830017,375.771423 277.598541,374.299438 277.367065,372.827423 
	C277.454529,358.880585 277.541992,344.933716 277.604736,330.139893 
	C277.052063,328.850769 276.524078,328.408661 275.996094,327.966553 
	C274.084045,327.811615 272.171997,327.656677 269.288757,327.423035 
	C276.473297,319.833588 283.093231,312.840546 290.459442,305.059204 
	C290.459442,310.307159 290.459442,314.393524 290.459442,318.906311 
	C300.321289,318.906311 309.872528,318.906311 319.574219,318.906311 
	C320.079437,314.579468 320.150391,309.904175 321.230072,305.474731 
	C324.714325,291.180145 340.084625,283.467590 353.813293,288.849945 
	C358.165436,290.556152 361.651886,293.277008 360.861420,298.397339 
	C360.548798,300.422211 358.505646,303.339264 356.803131,303.692200 
	C354.748291,304.118134 352.188049,302.320099 349.918488,301.321228 
	C349.448425,301.114349 349.206299,300.217529 349.009033,299.591492 
	C347.964996,296.277832 346.832672,293.193756 342.347992,293.641632 
	C337.726166,294.103119 334.744629,296.781830 334.076569,301.037720 
	C333.160583,306.872803 333.119720,312.845276 332.670258,319.236450 
	C338.531616,319.236450 343.628967,319.236450 348.665314,319.236450 
	C349.508240,326.908966 348.820312,327.722900 341.908325,327.724030 
	C339.116608,327.724487 336.324921,327.724121 334.071808,327.724121 
	C334.071808,348.215302 334.071808,368.258606 334.071808,388.626343 
	C329.457703,388.626343 323.924713,388.626343 318.404999,388.626343 
	C318.913391,383.767792 319.396484,379.151062 319.886536,373.873291 
	C319.851501,372.817444 319.809540,372.422577 319.767609,372.027740 
	C319.866699,358.008270 320.000061,343.988678 319.968750,329.969513 
	C319.967102,329.229340 318.570831,328.492340 316.954041,327.758911 
	C308.388977,327.825592 300.693695,327.887207 292.998383,327.948792 
z"/>
<path fill="#F9F9F9" opacity="1.000000" stroke="none" 
	d="
M123.874008,266.995880 
	C124.042656,265.949158 124.211311,264.902435 124.448212,263.079376 
	C124.675903,250.941696 124.899887,239.580612 124.948227,228.218796 
	C124.959923,225.470016 124.391617,222.718796 124.090027,219.968689 
	C121.587143,215.173035 117.167313,213.866898 109.962509,215.653534 
	C105.467819,216.768127 102.853828,218.736603 103.100342,224.168198 
	C103.718422,237.786469 103.679131,251.433670 104.015701,265.066498 
	C104.075790,267.500641 104.674400,269.921509 105.057541,272.578644 
	C97.511719,272.578644 90.233871,272.578644 83.081680,272.578644 
	C84.300346,251.062515 88.022827,229.616943 80.675972,207.825531 
	C87.283180,205.928406 94.631882,203.818359 102.496582,201.560165 
	C102.496582,206.234009 102.496582,210.316605 102.496582,215.266251 
	C103.515205,214.363907 103.986145,214.100204 104.240364,213.699127 
	C110.896477,203.197540 119.187622,199.600769 131.415894,201.962784 
	C137.419876,203.122543 141.322037,206.694733 142.607895,212.629654 
	C143.376099,216.175369 143.659622,219.874496 143.735382,223.513519 
	C144.073410,239.751617 144.258179,255.992935 144.511230,273.107971 
	C138.090897,272.718048 130.642380,272.265686 123.282272,271.111877 
	C123.538452,269.272217 123.706230,268.134064 123.874008,266.995880 
z"/>
<path fill="#FAFAFA" opacity="1.000000" stroke="none" 
	d="
M278.709839,254.136017 
	C279.876587,260.528137 283.605957,262.784943 291.263489,261.732758 
	C298.216827,260.777344 300.866119,257.883484 300.766754,251.020935 
	C300.588440,238.703918 300.413116,226.384720 299.990906,214.074860 
	C299.885284,210.993896 298.845062,207.944962 298.158875,204.502655 
	C305.017487,203.765976 311.745758,203.043289 318.938690,202.270706 
	C320.725342,225.664459 317.040771,249.167709 321.621613,272.465027 
	C315.000183,272.465027 308.286865,272.465027 301.154785,272.465027 
	C301.154785,268.447174 301.154785,264.721588 301.154785,260.996002 
	C295.924316,271.943787 287.133881,275.384247 275.958557,273.895477 
	C266.844086,272.681305 261.530975,267.600494 260.087036,258.474426 
	C259.363800,253.903610 259.471436,249.191086 259.340088,244.538788 
	C258.966461,231.304718 258.663086,218.068665 258.317871,204.266205 
	C263.822144,203.758545 270.562622,203.136856 277.679718,203.198715 
	C278.049042,217.351089 277.998413,230.820114 278.065491,244.288574 
	C278.081848,247.572037 278.484680,250.853592 278.709839,254.136017 
z"/>
<path fill="#F8F8F8" opacity="1.000000" stroke="none" 
	d="
M132.379639,384.475830 
	C121.799660,391.739014 110.528625,391.279114 98.061737,388.507141 
	C98.588806,397.876709 99.086510,406.724030 99.594856,415.760681 
	C94.580650,415.760681 89.299706,415.760681 84.420975,415.760681 
	C84.975166,384.917267 87.058731,354.150879 83.165535,322.791809 
	C86.050842,321.865997 90.119705,320.527466 94.213211,319.269165 
	C95.295227,318.936584 96.453224,318.851166 97.896240,318.595581 
	C97.896240,322.791229 97.896240,326.737762 97.896240,331.772919 
	C99.075180,330.294983 99.675728,329.653839 100.150673,328.930267 
	C109.839973,314.168121 131.081665,313.976471 140.874771,328.686981 
	C150.475113,343.107910 148.892014,372.660645 132.379639,384.475830 
M98.300743,335.608978 
	C98.267456,348.717865 98.181595,361.827148 98.277519,374.935089 
	C98.287773,376.334503 99.359558,377.726196 100.335602,379.687103 
	C112.329262,387.382446 125.283340,384.328766 129.736008,372.255035 
	C133.688156,361.538452 133.797012,350.387604 130.641144,339.405396 
	C128.807449,333.024170 124.514107,328.691467 117.644165,327.875000 
	C110.239166,326.994904 103.317986,327.883087 98.300743,335.608978 
z"/>
<path fill="#F9F8F9" opacity="1.000000" stroke="none" 
	d="
M163.633606,273.949341 
	C155.803329,272.077271 151.250549,267.516510 150.079056,259.935791 
	C148.862335,252.062546 152.230331,246.148117 158.957550,242.480301 
	C165.067276,239.149170 171.671951,236.738602 177.885086,233.581100 
	C185.429337,229.747116 187.644211,224.158859 185.190704,216.142151 
	C184.277451,213.158142 182.896194,210.338272 179.124466,210.732101 
	C175.059647,211.156525 169.552048,209.070709 168.725372,216.026962 
	C168.609100,217.005234 168.499237,218.218063 167.895569,218.862488 
	C165.757263,221.145157 163.718597,224.200912 161.031769,225.064453 
	C159.055984,225.699463 154.681076,223.968811 153.952026,222.218857 
	C152.784790,219.417099 152.622910,215.125351 154.010727,212.512100 
	C160.717010,199.884430 190.921066,197.036087 200.001083,208.140244 
	C202.260452,210.903244 203.826233,214.978806 204.023361,218.544342 
	C204.638229,229.666321 204.447678,240.832962 204.563614,251.982361 
	C204.649658,260.257355 206.093155,261.626007 214.210983,261.102905 
	C213.527603,268.329620 209.746490,272.980164 203.660721,274.078888 
	C195.628708,275.529022 190.595078,272.621155 185.993240,263.251801 
	C181.447189,273.023529 173.545151,275.323486 163.633606,273.949341 
M185.861069,241.712631 
	C185.861069,239.631622 185.861069,237.550613 185.861069,235.112656 
	C181.760742,237.373581 178.066864,239.176025 174.618652,241.365387 
	C169.123001,244.854706 166.787766,253.061462 169.358582,258.956299 
	C171.088760,262.923584 175.381638,264.836151 180.282913,263.669556 
	C184.482529,262.669952 186.170471,259.949463 185.916519,255.612808 
	C185.664505,251.309280 185.861206,246.979477 185.861069,241.712631 
z"/>
<path fill="#F9F9F9" opacity="1.000000" stroke="none" 
	d="
M432.632904,254.492416 
	C428.592896,267.355194 419.269470,274.260040 405.925110,274.272064 
	C391.231537,274.285309 379.256195,266.145569 375.246490,253.159439 
	C371.711334,241.710327 372.417542,230.397018 377.429962,219.516022 
	C384.412476,204.358170 401.051483,197.460556 416.863800,202.891769 
	C423.098206,205.033157 427.723297,209.131592 429.723694,215.261581 
	C431.641968,221.140121 432.457336,227.378571 433.950623,234.362473 
	C425.874237,234.362473 419.110809,234.362473 412.347382,234.362473 
	C405.560791,234.362473 398.774200,234.362473 391.503510,234.362473 
	C391.847809,243.561935 392.887665,252.028671 400.894501,257.249634 
	C409.087585,262.592041 417.738708,261.382690 426.133728,257.293793 
	C427.906769,256.430176 429.438324,255.070831 431.623962,254.037766 
	C432.322144,254.254562 432.477539,254.373489 432.632904,254.492416 
M393.469757,220.163666 
	C392.899902,223.150772 392.330017,226.137894 391.662476,229.637054 
	C400.141846,228.861130 407.645844,228.174438 415.840576,227.424561 
	C415.282593,223.608078 415.145691,220.127060 414.222656,216.868729 
	C412.061615,209.240021 402.682373,207.086990 397.300537,212.988022 
	C395.691040,214.752808 394.887177,217.252350 393.469757,220.163666 
z"/>
<path fill="#F6F6F6" opacity="1.000000" stroke="none" 
	d="
M474.063599,363.987183 
	C470.390289,346.085907 476.884247,325.896942 496.808136,319.306427 
	C514.458435,313.467957 533.011963,324.647614 537.693176,343.538452 
	C540.309570,354.097168 539.260315,364.444031 533.887695,373.999023 
	C521.742981,395.597839 491.637695,396.010040 478.774048,374.806091 
	C477.039673,371.947144 475.794800,368.791229 474.321838,365.131958 
	C474.234772,364.323090 474.149170,364.155121 474.063599,363.987183 
M524.040344,345.914612 
	C522.820801,341.798065 522.076294,337.459167 520.276917,333.613983 
	C517.116333,326.860077 511.301788,324.165344 503.915802,324.645111 
	C496.847870,325.104218 492.448975,329.168549 490.450867,335.500214 
	C486.649689,347.545593 486.617188,359.807556 490.612396,371.799042 
	C493.449677,380.315125 499.769867,384.304779 508.036316,383.861725 
	C515.477966,383.462860 521.321350,378.688599 522.759399,369.991028 
	C524.013611,362.406128 523.719727,354.565247 524.040344,345.914612 
z"/>
<path fill="#F7F7F7" opacity="1.000000" stroke="none" 
	d="
M159.488098,376.414062 
	C151.744370,364.048492 150.981522,351.268555 156.264999,338.341644 
	C161.353882,325.890808 170.857193,318.427582 184.523361,318.071198 
	C198.616425,317.703644 209.250107,324.197021 215.169052,337.156799 
	C220.608459,349.066681 220.127731,361.248413 214.210327,372.834106 
	C203.056580,394.672119 175.315353,396.530396 159.488098,376.414062 
M197.125519,329.357300 
	C187.321350,321.061676 174.615707,323.378082 170.516663,334.781921 
	C166.055237,347.193878 166.226196,360.006592 170.637329,372.451569 
	C173.549759,380.668304 179.800293,384.360168 187.999847,383.856018 
	C195.072678,383.421143 200.867355,379.060150 202.194641,370.697296 
	C203.582474,361.952881 203.818375,352.860718 203.166489,344.023224 
	C202.811157,339.206055 199.570480,334.601685 197.125519,329.357300 
z"/>
<path fill="#F7F7F7" opacity="1.000000" stroke="none" 
	d="
M373.019836,318.778687 
	C386.407593,315.933899 400.137299,321.673737 407.140930,332.779785 
	C415.324829,345.757355 414.802948,364.647217 405.914612,377.166718 
	C393.105560,395.208679 366.402252,394.770447 353.665527,376.309326 
	C344.562866,363.115540 345.280823,342.454742 355.339691,329.966888 
	C359.848328,324.369537 365.471649,320.423523 373.019836,318.778687 
M363.775909,337.480347 
	C360.806580,347.623535 361.374481,357.934052 363.064636,368.108429 
	C364.609772,377.409851 372.049713,383.728851 380.289062,383.878845 
	C389.284271,384.042633 394.681000,379.359131 397.104950,368.809631 
	C399.490173,358.428711 399.387909,348.015442 396.168030,337.804199 
	C393.431396,329.125549 387.971680,324.807678 380.075653,324.590027 
	C372.006714,324.367615 367.641052,327.643951 363.775909,337.480347 
z"/>
<path fill="#F8F8F8" opacity="1.000000" stroke="none" 
	d="
M248.691864,271.963623 
	C243.306137,272.772064 238.182190,274.283539 233.236328,273.834320 
	C223.404251,272.941315 218.170807,266.082703 218.003265,254.933212 
	C217.823166,242.949051 217.956360,230.960175 217.953018,218.973358 
	C217.952560,217.330811 217.952957,215.688263 217.952957,213.644653 
	C215.198914,213.644653 212.794403,213.644653 210.914566,213.644653 
	C219.467209,205.104080 228.065598,196.517838 236.459412,188.135864 
	C236.459412,192.112274 236.459412,197.109299 236.459412,202.745422 
	C242.542908,202.745422 248.088562,202.745422 254.600311,202.745422 
	C251.944244,206.990646 255.636566,212.876740 249.853851,214.425247 
	C245.981583,215.462158 241.606781,214.622406 236.756393,214.622406 
	C236.756393,220.749100 236.753662,226.676056 236.757141,232.603027 
	C236.760864,238.929321 236.664719,245.257980 236.805145,251.581314 
	C236.968536,258.938599 240.536880,262.121735 247.931732,261.536285 
	C250.515823,261.331696 253.062576,260.655396 256.007568,260.125977 
	C255.104965,265.096924 253.239578,269.112823 248.691864,271.963623 
z"/>
<path fill="#F8F8F8" opacity="1.000000" stroke="none" 
	d="
M365.286377,201.232346 
	C373.049805,201.647964 376.054352,203.577835 377.043365,208.614899 
	C377.853363,212.740280 376.758911,216.309921 373.217316,218.696304 
	C369.608673,221.127838 365.987366,220.512726 362.570679,218.012955 
	C356.774902,213.772537 353.971832,214.567810 351.587280,221.573914 
	C350.587494,224.511505 349.973175,227.747711 350.004333,230.839890 
	C350.142914,244.581985 350.578766,258.321075 350.915527,272.412292 
	C344.446777,272.412292 336.909729,272.412292 330.040649,272.412292 
	C330.413086,261.671722 331.177002,250.932999 331.047028,240.205124 
	C330.917999,229.555038 333.421997,218.424286 326.163818,208.117218 
	C333.790741,205.898773 341.005615,203.800186 348.713196,201.558273 
	C348.713196,206.991974 348.713196,211.902725 348.713196,216.813461 
	C352.410614,209.657578 355.575897,202.342804 365.286377,201.232346 
z"/>
<path fill="#F7F7F7" opacity="1.000000" stroke="none" 
	d="
M434.430359,313.047852 
	C434.590851,338.451660 434.751312,363.363007 434.913879,388.604156 
	C430.632996,388.604156 425.264404,388.604156 420.418091,388.604156 
	C421.233215,356.447662 422.911285,324.380310 419.390533,291.610809 
	C423.400482,290.425537 428.755920,288.842590 434.430328,287.165344 
	C434.430328,295.840881 434.430328,304.198120 434.430359,313.047852 
z"/>
<path fill="#F6F6F6" opacity="1.000000" stroke="none" 
	d="
M225.180359,332.934204 
	C224.550140,329.887787 223.919937,326.841370 223.127274,323.009613 
	C227.729691,321.581970 232.815247,320.004425 238.540039,318.228638 
	C238.540039,323.143829 238.540039,327.508484 238.540039,331.873138 
	C238.840958,331.933655 239.141891,331.994171 239.442810,332.054688 
	C240.081879,330.637604 240.685501,329.203278 241.365921,327.806366 
	C244.825790,320.703125 250.857910,317.168579 258.217651,317.904785 
	C263.918030,318.475006 267.359283,322.865692 265.788666,328.359955 
	C265.244110,330.264801 263.190002,332.747955 261.479614,333.057739 
	C259.270874,333.457703 256.192566,332.584747 254.407410,331.131439 
	C249.114243,326.822296 245.350449,326.930298 242.166718,332.998138 
	C240.454178,336.262024 239.309250,340.208588 239.228516,343.876160 
	C238.903717,358.628815 239.094055,373.392792 239.094055,389.222504 
	C234.901337,388.831085 229.573059,388.333649 224.312836,387.258545 
	C224.274429,386.113525 224.168015,385.546173 224.061554,384.978851 
	C224.501114,383.269989 224.940689,381.561127 225.486023,379.106079 
	C225.683853,375.572388 225.775925,372.784851 225.867981,369.997314 
	C225.942413,359.635040 226.016830,349.272766 226.052094,338.091187 
	C225.735428,335.825958 225.457886,334.380096 225.180359,332.934204 
z"/>
<path fill="#F6F6F6" opacity="1.000000" stroke="none" 
	d="
M449.816956,381.566559 
	C450.165710,361.895538 452.422516,342.596619 447.775604,322.934418 
	C452.417084,321.578156 457.760620,320.016724 464.227173,318.127167 
	C464.227173,341.970734 464.227173,365.133240 464.227173,388.620972 
	C459.751373,388.620972 454.375916,388.620972 448.651489,388.620972 
	C449.049774,386.263641 449.407532,384.146240 449.816956,381.566559 
z"/>
<path fill="#F6F6F6" opacity="1.000000" stroke="none" 
	d="
M455.351868,308.535309 
	C449.397034,306.662933 446.940552,303.058105 448.046906,298.312134 
	C449.034576,294.075165 452.911072,291.405182 457.357544,291.899414 
	C461.661011,292.377747 464.959320,296.044983 464.925293,300.313660 
	C464.886597,305.170227 461.847412,307.904480 455.351868,308.535309 
z"/>
<path fill="#141011" opacity="1.000000" stroke="none" 
	d="
M279.058289,253.872452 
	C278.484680,250.853592 278.081848,247.572037 278.065491,244.288574 
	C277.998413,230.820114 278.049042,217.351089 278.113800,203.413025 
	C278.779541,203.181000 279.921539,203.421814 279.919983,203.654877 
	C279.807098,220.306610 279.603180,236.957718 279.058289,253.872452 
z"/>
<path fill="#2A2627" opacity="1.000000" stroke="none" 
	d="
M123.782822,220.257355 
	C124.391617,222.718796 124.959923,225.470016 124.948227,228.218796 
	C124.899887,239.580612 124.675903,250.941696 124.365067,262.687042 
	C123.849289,262.547638 123.164940,262.022827 123.167213,261.501038 
	C123.226631,247.849182 123.357239,234.197632 123.782822,220.257355 
z"/>
<path fill="#201C1D" opacity="1.000000" stroke="none" 
	d="
M293.083313,328.350037 
	C300.693695,327.887207 308.388977,327.825592 316.542480,327.870880 
	C316.239166,328.645966 315.488434,329.879028 314.714355,329.893890 
	C308.015991,330.022308 301.313049,329.955475 294.612823,329.856720 
	C294.125977,329.849548 293.649536,329.136292 293.083313,328.350037 
z"/>
<path fill="#282526" opacity="1.000000" stroke="none" 
	d="
M225.493378,370.095428 
	C225.775925,372.784851 225.683853,375.572388 225.415222,378.720947 
	C225.198700,376.119171 225.158752,373.156372 225.493378,370.095428 
z"/>
<path fill="#282526" opacity="1.000000" stroke="none" 
	d="
M224.888062,333.152222 
	C225.457886,334.380096 225.735428,335.825958 225.926025,337.637695 
	C225.424667,336.459106 225.010208,334.914642 224.888062,333.152222 
z"/>
<path fill="#141011" opacity="1.000000" stroke="none" 
	d="
M277.045044,373.041901 
	C277.598541,374.299438 277.830017,375.771423 278.037415,377.619812 
	C277.583221,376.416260 277.153107,374.836334 277.045044,373.041901 
z"/>
<path fill="#2A2627" opacity="1.000000" stroke="none" 
	d="
M123.543503,267.061768 
	C123.706230,268.134064 123.538452,269.272217 123.187744,270.705933 
	C123.074196,269.710175 123.143593,268.418884 123.543503,267.061768 
z"/>
<path fill="#282526" opacity="1.000000" stroke="none" 
	d="
M223.829117,385.128967 
	C224.168015,385.546173 224.274429,386.113525 224.227783,386.852203 
	C223.915359,386.442047 223.755997,385.860565 223.829117,385.128967 
z"/>
<path fill="#141011" opacity="1.000000" stroke="none" 
	d="
M276.028748,328.307190 
	C276.524078,328.408661 277.052063,328.850769 277.465454,329.695068 
	C276.921051,329.614136 276.491241,329.130981 276.028748,328.307190 
z"/>
<path fill="#201C1D" opacity="1.000000" stroke="none" 
	d="
M319.426941,372.098450 
	C319.809540,372.422577 319.851501,372.817444 319.800964,373.498260 
	C319.501038,373.245880 319.293671,372.707489 319.426941,372.098450 
z"/>
<path fill="#F9F9F9" opacity="1.000000" stroke="none" 
	d="
M431.951477,253.936066 
	C432.041992,253.558548 432.347748,253.380554 432.653534,253.202576 
	C432.724457,253.467712 432.795380,253.732849 432.749634,254.245209 
	C432.477539,254.373489 432.322144,254.254562 431.951477,253.936066 
z"/>
<path fill="#141011" opacity="1.000000" stroke="none" 
	d="
M473.886597,364.090790 
	C474.149170,364.155121 474.234772,364.323090 474.237610,364.761475 
	C474.006439,364.752716 473.858032,364.473572 473.886597,364.090790 
z"/>
<path fill="#252122" opacity="1.000000" stroke="none" 
	d="
M98.815445,334.951904 
	C103.317986,327.883087 110.239166,326.994904 117.644165,327.875000 
	C124.514107,328.691467 128.807449,333.024170 130.641144,339.405396 
	C133.797012,350.387604 133.688156,361.538452 129.736008,372.255035 
	C125.283340,384.328766 112.329262,387.382446 100.118835,378.927917 
	C99.881416,365.477600 99.898979,352.786194 99.795021,340.095764 
	C99.780960,338.378571 99.156998,336.666412 98.815445,334.951904 
z"/>
<path fill="#464344" opacity="1.000000" stroke="none" 
	d="
M98.558090,335.280457 
	C99.156998,336.666412 99.780960,338.378571 99.795021,340.095764 
	C99.898979,352.786194 99.881416,365.477600 99.920486,378.645081 
	C99.359558,377.726196 98.287773,376.334503 98.277519,374.935089 
	C98.181595,361.827148 98.267456,348.717865 98.558090,335.280457 
z"/>
<path fill="#2A2627" opacity="1.000000" stroke="none" 
	d="
M185.861099,242.186920 
	C185.861206,246.979477 185.664505,251.309280 185.916519,255.612808 
	C186.170471,259.949463 184.482529,262.669952 180.282913,263.669556 
	C175.381638,264.836151 171.088760,262.923584 169.358582,258.956299 
	C166.787766,253.061462 169.123001,244.854706 174.618652,241.365387 
	C178.066864,239.176025 181.760742,237.373581 185.861069,235.112656 
	C185.861069,237.550613 185.861069,239.631622 185.861099,242.186920 
z"/>
<path fill="#282526" opacity="1.000000" stroke="none" 
	d="
M393.591980,219.789459 
	C394.887177,217.252350 395.691040,214.752808 397.300537,212.988022 
	C402.682373,207.086990 412.061615,209.240021 414.222656,216.868729 
	C415.145691,220.127060 415.282593,223.608078 415.840576,227.424561 
	C407.645844,228.174438 400.141846,228.861130 391.662476,229.637054 
	C392.330017,226.137894 392.899902,223.150772 393.591980,219.789459 
z"/>
<path fill="#252122" opacity="1.000000" stroke="none" 
	d="
M524.075073,346.376038 
	C523.719727,354.565247 524.013611,362.406128 522.759399,369.991028 
	C521.321350,378.688599 515.477966,383.462860 508.036316,383.861725 
	C499.769867,384.304779 493.449677,380.315125 490.612396,371.799042 
	C486.617188,359.807556 486.649689,347.545593 490.450867,335.500214 
	C492.448975,329.168549 496.847870,325.104218 503.915802,324.645111 
	C511.301788,324.165344 517.116333,326.860077 520.276917,333.613983 
	C522.076294,337.459167 522.820801,341.798065 524.075073,346.376038 
z"/>
<path fill="#252122" opacity="1.000000" stroke="none" 
	d="
M197.378311,329.629333 
	C199.570480,334.601685 202.811157,339.206055 203.166489,344.023224 
	C203.818375,352.860718 203.582474,361.952881 202.194641,370.697296 
	C200.867355,379.060150 195.072678,383.421143 187.999847,383.856018 
	C179.800293,384.360168 173.549759,380.668304 170.637329,372.451569 
	C166.226196,360.006592 166.055237,347.193878 170.516663,334.781921 
	C174.615707,323.378082 187.321350,321.061676 197.378311,329.629333 
z"/>
<path fill="#252122" opacity="1.000000" stroke="none" 
	d="
M363.857971,337.089966 
	C367.641052,327.643951 372.006714,324.367615 380.075653,324.590027 
	C387.971680,324.807678 393.431396,329.125549 396.168030,337.804199 
	C399.387909,348.015442 399.490173,358.428711 397.104950,368.809631 
	C394.681000,379.359131 389.284271,384.042633 380.289062,383.878845 
	C372.049713,383.728851 364.609772,377.409851 363.064636,368.108429 
	C361.374481,357.934052 360.806580,347.623535 363.857971,337.089966 
z"/>
</svg>